<!DOCTYPE svg PUBLIC "-//W3C//DTD SVG 1.1//EN" "http://www.w3.org/Graphics/SVG/1.1/DTD/svg11.dtd">
<!-- Uploaded to: SVG Repo, www.svgrepo.com, Transformed by: SVG Repo Mixer Tools -->
<svg width="256px" height="256px" viewBox="-33.28 -33.28 130.56 130.56" xmlns="http://www.w3.org/2000/svg" fill="#000000" stroke="#000000" stroke-width="0.00064" transform="matrix(1, 0, 0, 1, 0, 0)rotate(0)">
<g id="SVGRepo_bgCarrier" stroke-width="0" transform="translate(0,0), scale(1)">
<path transform="translate(-33.28, -33.28), scale(4.08)" d="M16,28.693595406200203C20.069048551355124,28.545028734251527,24.452788234896484,27.946696533899512,26.89890184286285,24.691584187724516C29.28723377441726,21.513363547502458,28.47115923836632,17.23063192098484,27.5136247872341,13.372090275737138C26.586579330482426,9.636409018854518,25.215831885895067,5.733455197232574,21.76912154628955,4.020295669703268C18.282804993871487,2.287450194083257,14.191036776241944,3.2720291661451544,10.71302791113293,5.021489334386784C7.3222090543208616,6.7270923842310495,4.758119803609898,9.556487670727632,3.5859094622108696,13.16656484426112C2.246370527067113,17.291966883497757,1.3466575756827894,22.13787264053165,4.055226730900138,25.525638818341015C6.761551397655042,28.910597682892416,11.669049191318319,28.851724497042582,16,28.693595406200203" fill="#d8e4e9" strokewidth="0"/>
</g>
<g id="SVGRepo_tracerCarrier" stroke-linecap="round" stroke-linejoin="round" stroke="#CCCCCC" stroke-width="0.384"/>
<g id="SVGRepo_iconCarrier"> <path d="M5.106 0c-2.802 0-5.073 2.272-5.073 5.074v53.841c0 2.803 2.271 5.074 5.073 5.074h45.774c2.801 0 5.074-2.271 5.074-5.074v-38.605l-18.903-20.31h-31.945z" fill-rule="evenodd" clip-rule="evenodd" fill="#45B058"/> <path d="M20.306 43.197c.126.144.198.324.198.522 0 .378-.306.72-.703.72-.18 0-.378-.072-.504-.234-.702-.846-1.891-1.387-3.007-1.387-2.629 0-4.627 2.017-4.627 4.88 0 2.845 1.999 4.879 4.627 4.879 1.134 0 2.25-.486 3.007-1.369.125-.144.324-.233.504-.233.415 0 .703.359.703.738 0 .18-.072.36-.198.504-.937.972-2.215 1.693-4.015 1.693-3.457 0-6.176-2.521-6.176-6.212s2.719-6.212 6.176-6.212c1.8.001 3.096.721 4.015 1.711zm6.802 10.714c-1.782 0-3.187-.594-4.213-1.495-.162-.144-.234-.342-.234-.54 0-.361.27-.757.702-.757.144 0 .306.036.432.144.828.739 1.98 1.314 3.367 1.314 2.143 0 2.827-1.152 2.827-2.071 0-3.097-7.112-1.386-7.112-5.672 0-1.98 1.764-3.331 4.123-3.331 1.548 0 2.881.467 3.853 1.278.162.144.252.342.252.54 0 .36-.306.72-.703.72-.144 0-.306-.054-.432-.162-.882-.72-1.98-1.044-3.079-1.044-1.44 0-2.467.774-2.467 1.909 0 2.701 7.112 1.152 7.112 5.636.001 1.748-1.187 3.531-4.428 3.531zm16.994-11.254l-4.159 10.335c-.198.486-.685.81-1.188.81h-.036c-.522 0-1.008-.324-1.207-.81l-4.142-10.335c-.036-.09-.054-.18-.054-.288 0-.36.323-.793.81-.793.306 0 .594.18.72.486l3.889 9.992 3.889-9.992c.108-.288.396-.486.72-.486.468 0 .81.378.81.793.001.09-.017.198-.052.288z" fill="#ffffff"/> <g fill-rule="evenodd" clip-rule="evenodd"> <path d="M56.001 20.357v1h-12.8s-6.312-1.26-6.128-6.707c0 0 .208 5.707 6.003 5.707h12.925z" fill="#349C42"/> <path d="M37.098.006v14.561c0 1.656 1.104 5.791 6.104 5.791h12.8l-18.904-20.352z" opacity=".5" fill="#ffffff"/> </g> </g>
</svg>